<?xml version="1.0" encoding="utf-8"?>
<!-- Generator: Adobe Illustrator 24.1.1, SVG Export Plug-In . SVG Version: 6.00 Build 0)  -->
<svg version="1.1" id="Layer_1" xmlns="http://www.w3.org/2000/svg" xmlns:xlink="http://www.w3.org/1999/xlink" x="0px" y="0px"
	 viewBox="0 0 150 150" style="enable-background:new 0 0 150 150;" xml:space="preserve">
<style type="text/css">
	.st0{fill:none;stroke:#CCCCCC;stroke-width:4.8133;stroke-linecap:round;stroke-miterlimit:10;}
	.st1{fill:none;stroke:#CCCCCC;stroke-width:4;stroke-linecap:round;stroke-miterlimit:10;}
	.st2{fill:none;stroke:#CCCCCC;stroke-width:4;stroke-miterlimit:10;}
	.st3{fill:none;stroke:#CCCCCC;stroke-width:4.0932;stroke-linecap:round;stroke-miterlimit:10;}
</style>
<path class="st0" d="M108.6,101.2"/>
<path class="st0" d="M111.3,189.8"/>
<g>
	<line class="st1" x1="145.3" y1="59.7" x2="112.1" y2="59.7"/>
	<line class="st1" x1="128.7" y1="43.9" x2="128.7" y2="75.2"/>
</g>
<circle class="st2" cx="73.1" cy="36" r="32.7"/>
<path class="st3" d="M112.1,98.9"/>
<path class="st3" d="M109.7,187.5"/>
<g>
	<path class="st3" d="M128.3,86.6c0,5.2,0.2,4.1,0.2,8.3l-0.2,30.1c0.1,15.7,0.1,17.9-17.9,17.9H89l-15.5-0.2H33.8
		c-17.5-1.2-18.4,2.5-18.4-17.9v-26c0-0.1,0-0.3,0-0.4c-0.7-14,10.1-28.4,22.5-32.8"/>
</g>
</svg>
