<?xml version="1.0" encoding="utf-8"?>
<!-- Generator: Adobe Illustrator 24.1.1, SVG Export Plug-In . SVG Version: 6.00 Build 0)  -->
<svg version="1.1" id="Layer_1" xmlns="http://www.w3.org/2000/svg" xmlns:xlink="http://www.w3.org/1999/xlink" x="0px" y="0px"
	 viewBox="0 0 150 150" style="enable-background:new 0 0 150 150;" xml:space="preserve">
<style type="text/css">
	.st0{fill:none;stroke:#CCCCCC;stroke-width:5;stroke-linecap:round;stroke-linejoin:round;stroke-miterlimit:10;}
	.st1{fill:none;stroke:#CCCCCC;stroke-width:5;stroke-miterlimit:10;}
	.st2{fill:none;stroke:#CCCCCC;stroke-width:5;stroke-linejoin:bevel;stroke-miterlimit:10;}
</style>
<g>
	<g>
		<path class="st0" d="M85.5,81.3"/>
		<path class="st0" d="M32.5,81.3"/>
		<path class="st0" d="M74.7,98.8"/>
		<path class="st0" d="M32.5,98.8"/>
		<path class="st0" d="M70.5,118.7"/>
		<path class="st0" d="M32.5,118.7"/>
	</g>
	<g>
		<line class="st0" x1="55.6" y1="67.8" x2="108.6" y2="67.8"/>
		<line class="st0" x1="55.6" y1="85.2" x2="97.8" y2="85.2"/>
		<line class="st0" x1="55.6" y1="105.1" x2="93.6" y2="105.1"/>
	</g>
</g>
<g id="XMLID_1_">
	<g>
	</g>
	<g>
		<line class="st0" x1="95.5" y1="50.5" x2="91.9" y2="46.4"/>
		<path class="st1" d="M91.6,44.5c1.8,2.1,3.6,4.2,5.3,6.2"/>
		<path class="st1" d="M108.6,129.6v0.7c0,7.7-6.3,14-14,14H23.3c-7.7,0-14-6.3-14-14V34.4c0-7.7,6.3-14,14-14l9.1-0.2"/>
		<path class="st2" d="M32.4,20.2v-0.4c0-7.7,6.3-14,14-14l45.2-0.1c7.5,6.1,35,38.4,40.1,43.7v66.2c0,7.7-6.3,14-13.9,14h-9.1H46.4
			c-7.7,0-14-6.3-14-14V20.2z"/>
		<path class="st0" d="M96.9,50.7H131L91.6,6.8V44c0,0.1,0,0.3,0,0.5c0,0.7,0.2,1.3,0.3,1.9c0.6,2,1.9,3.5,3.6,4
			c0.4,0.1,0.8,0.2,1.3,0.2H96.9z"/>
	</g>
</g>
</svg>
